<?xml version="1.0" encoding="utf-8"?>
<!-- Generator: Adobe Illustrator 16.0.0, SVG Export Plug-In . SVG Version: 6.00 Build 0)  -->
<!DOCTYPE svg PUBLIC "-//W3C//DTD SVG 1.1//EN" "http://www.w3.org/Graphics/SVG/1.1/DTD/svg11.dtd">
<svg version="1.1" id="Layer_1" xmlns="http://www.w3.org/2000/svg" xmlns:xlink="http://www.w3.org/1999/xlink" x="0px" y="0px"
	 width="24px" height="24px" viewBox="0 0 24 24" enable-background="new 0 0 24 24" xml:space="preserve">
<g>
	<g>
		<path fill="#0A8255" stroke="#0A8255" stroke-width="0.5" stroke-miterlimit="10" d="M21.834,8.583
			c0.109-1.996-0.299-3.51-1.219-4.499c-0.68-0.73-1.471-0.977-1.934-1.061c-0.652-1.292-1.717-1.585-2.412-1.55
			c-1.259-1.138-2.428-1.161-3.205-0.966C12.615,0.619,12.254,0.814,12,0.984c-0.254-0.17-0.615-0.365-1.066-0.477
			C10.158,0.312,8.99,0.335,7.732,1.473c-0.701-0.035-1.76,0.258-2.412,1.55C4.856,3.107,4.065,3.354,3.386,4.084
			c-0.92,0.989-1.33,2.502-1.218,4.499c-0.802,1.339-1.457,4.033,1.06,5.948c-0.168,1.191,0.059,3.111,1.821,4.121
			c-0.067,0.459-0.074,1.147,0.296,1.764c0.31,0.516,0.81,0.857,1.487,1.023c0.403,0.615,1.562,2.146,3.056,2.146
			c0.01,0,0.021,0,0.031,0c0.774-0.01,1.471-0.424,2.083-1.229c0.612,0.806,1.312,1.22,2.083,1.229c0.011,0,0.021,0,0.031,0
			c1.493,0,2.651-1.53,3.056-2.146c0.68-0.166,1.178-0.508,1.489-1.023c0.368-0.615,0.36-1.305,0.294-1.764
			c1.762-1.01,1.988-2.928,1.82-4.121C23.29,12.616,22.636,9.922,21.834,8.583z M19.807,13.787
			c-0.203,0.137-0.301,0.389-0.244,0.625c0.025,0.102,0.578,2.49-1.508,3.387c-0.277,0.117-0.42,0.434-0.324,0.719
			c0.004,0.01,0.238,0.779-0.071,1.297c-0.167,0.277-0.478,0.451-0.947,0.529c-0.17,0.029-0.319,0.133-0.405,0.279
			c-0.295,0.502-1.259,1.795-2.19,1.795c-0.005,0-0.011,0-0.017,0c-0.541-0.008-1.072-0.482-1.578-1.41
			c-0.103-0.188-0.314-0.303-0.526-0.303c-0.214,0-0.411,0.115-0.515,0.303c-0.504,0.928-1.035,1.402-1.576,1.41
			c-0.006,0-0.011,0-0.018,0c-0.931,0-1.894-1.293-2.188-1.795c-0.088-0.15-0.237-0.252-0.409-0.281
			c-0.466-0.076-0.775-0.25-0.943-0.525c-0.264-0.436-0.142-1.086-0.075-1.299c0.096-0.287-0.043-0.602-0.323-0.721
			c-2.088-0.895-1.534-3.285-1.51-3.383c0.06-0.238-0.039-0.49-0.243-0.627C1.455,11.96,3.057,9.349,3.25,9.058
			C3.321,8.95,3.354,8.82,3.346,8.692c-0.124-1.717,0.18-3.03,0.878-3.794c0.662-0.724,1.464-0.749,1.492-0.75
			c0.239,0,0.454-0.145,0.542-0.366C6.78,2.477,7.696,2.633,7.791,2.654C7.988,2.705,8.2,2.646,8.345,2.501
			c1.729-1.732,3.088-0.511,3.235-0.37c0.109,0.109,0.258,0.172,0.413,0.172h0.015c0.151,0,0.302-0.063,0.409-0.168
			c0.149-0.147,1.508-1.366,3.24,0.366c0.139,0.139,0.351,0.197,0.545,0.155c0.104-0.023,1.019-0.179,1.54,1.126
			c0.089,0.221,0.303,0.366,0.541,0.366c0.01,0,0.814,0.02,1.477,0.731c0.711,0.763,1.02,2.082,0.896,3.812
			c-0.008,0.128,0.025,0.257,0.096,0.364C20.941,9.35,22.547,11.961,19.807,13.787z"/>
	</g>
</g>
<g>
	<g>
		<path fill="#0A8255" stroke="#0A8255" stroke-width="0.5" stroke-miterlimit="10" d="M5.901,3.012
			C5.594,2.91,5.264,3.074,5.162,3.381C5.06,3.688,5.224,4.017,5.53,4.119c1.756,0.585,1.814,1.964,1.816,2.036
			c0.003,0.321,0.264,0.58,0.584,0.58c0.323,0,0.584-0.262,0.584-0.584C8.515,6.057,8.484,3.873,5.901,3.012z"/>
	</g>
</g>
<g>
	<g>
		<path fill="#0A8255" stroke="#0A8255" stroke-width="0.5" stroke-miterlimit="10" d="M7.764,12.618
			c-0.302-0.112-0.638,0.043-0.75,0.345c-0.003,0.01-0.426,1.102-1.225,1.334c-0.445,0.129-0.97-0.035-1.565-0.488
			c-0.257-0.197-0.623-0.147-0.818,0.111c-0.196,0.256-0.146,0.621,0.11,0.818c0.674,0.512,1.33,0.771,1.96,0.771
			c0.217,0,0.429-0.03,0.638-0.092c1.371-0.397,1.972-1.983,1.995-2.051C8.222,13.064,8.066,12.729,7.764,12.618z"/>
	</g>
</g>
<g>
	<g>
		<path fill="#0A8255" stroke="#0A8255" stroke-width="0.5" stroke-miterlimit="10" d="M9.821,16.443
			c-0.228-0.228-0.598-0.228-0.826,0c-1.691,1.69-1.279,3.438-1.261,3.51c0.066,0.264,0.303,0.438,0.563,0.438
			c0.046,0,0.091-0.004,0.137-0.016c0.312-0.072,0.504-0.387,0.434-0.697c-0.011-0.051-0.252-1.203,0.954-2.408
			C10.05,17.041,10.05,16.672,9.821,16.443z"/>
	</g>
</g>
<g>
	<g>
		<path fill="#0A8255" stroke="#0A8255" stroke-width="0.5" stroke-miterlimit="10" d="M10.776,8.213
			C10.05,7.851,9.492,8.286,9.001,8.672C8.609,8.979,8.123,9.359,7.345,9.67c-1.413,0.565-2.6-0.867-2.651-0.932
			c-0.202-0.25-0.569-0.291-0.82-0.09C3.622,8.85,3.582,9.217,3.783,9.469c0.059,0.074,1.226,1.506,2.881,1.506
			c0.352,0,0.726-0.064,1.113-0.22c0.934-0.374,1.516-0.83,1.942-1.164c0.18-0.142,0.428-0.333,0.504-0.345
			c0,0,0.01,0.001,0.03,0.012c0.287,0.144,0.639,0.026,0.783-0.261C11.182,8.708,11.064,8.358,10.776,8.213z"/>
	</g>
</g>
<g>
	<g>
		<path fill="#0A8255" stroke="#0A8255" stroke-width="0.5" stroke-miterlimit="10" d="M18.822,3.381
			c-0.102-0.307-0.432-0.472-0.737-0.369c-2.584,0.861-2.614,3.045-2.614,3.139c0,0.319,0.258,0.577,0.578,0.58
			c0.002,0,0.003,0,0.006,0c0.316,0,0.576-0.257,0.582-0.574c0.004-0.061,0.051-1.449,1.815-2.038
			C18.76,4.019,18.925,3.688,18.822,3.381z"/>
	</g>
</g>
<g>
	<g>
		<path fill="#0A8255" stroke="#0A8255" stroke-width="0.5" stroke-miterlimit="10" d="M20.58,13.92
			c-0.196-0.258-0.562-0.307-0.816-0.111c-0.596,0.453-1.119,0.615-1.562,0.49c-0.666-0.191-1.114-1.031-1.23-1.336
			c-0.109-0.304-0.447-0.457-0.748-0.345c-0.304,0.11-0.457,0.446-0.346,0.749c0.023,0.066,0.623,1.652,1.994,2.051
			c0.209,0.061,0.423,0.092,0.639,0.092c0.629,0,1.286-0.26,1.961-0.771C20.727,14.541,20.773,14.176,20.58,13.92z"/>
	</g>
</g>
<g>
	<g>
		<path fill="#0A8255" stroke="#0A8255" stroke-width="0.5" stroke-miterlimit="10" d="M14.467,14.812
			c-0.229-0.228-0.598-0.228-0.826,0c-0.228,0.229-0.228,0.598,0,0.826c1.198,1.196,0.965,2.344,0.952,2.403
			c-0.073,0.312,0.116,0.625,0.427,0.703c0.049,0.012,0.097,0.019,0.144,0.019c0.261,0,0.498-0.179,0.563-0.441
			C15.745,18.248,16.157,16.504,14.467,14.812z"/>
	</g>
</g>
<g>
	<g>
		<path fill="#0A8255" stroke="#0A8255" stroke-width="0.5" stroke-miterlimit="10" d="M20.057,10.597
			c-0.109-0.303-0.443-0.459-0.746-0.351c-0.076,0.026-1.836,0.638-2.75-0.58c-0.504-0.67-0.723-1.249-0.896-1.713
			c-0.223-0.585-0.473-1.248-1.28-1.314c-0.323-0.03-0.604,0.213-0.63,0.535c-0.025,0.321,0.213,0.603,0.533,0.629
			c0.016,0.001,0.025,0.004,0.027,0.004l0,0c0.066,0.055,0.176,0.346,0.256,0.559c0.189,0.505,0.451,1.199,1.055,2.002
			c0.734,0.977,1.754,1.22,2.592,1.22c0.805,0,1.439-0.225,1.492-0.245C20.01,11.231,20.165,10.899,20.057,10.597z"/>
	</g>
</g>
<g>
	<g>
		<path fill="#0A8255" stroke="#0A8255" stroke-width="0.5" stroke-miterlimit="10" d="M11.993,1.136
			c-0.323,0-0.585,0.261-0.585,0.584v19.567c0,0.324,0.262,0.586,0.585,0.586c0.322,0,0.582-0.262,0.582-0.586V1.72
			C12.575,1.396,12.315,1.136,11.993,1.136z"/>
	</g>
</g>
<g>
	<g>
		<path fill="#0A8255" stroke="#0A8255" stroke-width="0.5" stroke-miterlimit="10" d="M8.994,14.156
			c-1.753-1.168-0.592-3.578-0.541-3.685c0.145-0.287,0.028-0.636-0.261-0.782C7.904,9.545,7.554,9.663,7.41,9.95
			c-0.591,1.183-1.156,3.784,0.937,5.179c0.099,0.064,0.211,0.096,0.322,0.096c0.188,0,0.375-0.09,0.488-0.26
			C9.334,14.697,9.263,14.336,8.994,14.156z"/>
	</g>
</g>
</svg>
