<?xml version="1.0" encoding="utf-8"?>
<!-- Generator: Adobe Illustrator 16.0.0, SVG Export Plug-In . SVG Version: 6.00 Build 0)  -->
<!DOCTYPE svg PUBLIC "-//W3C//DTD SVG 1.1//EN" "http://www.w3.org/Graphics/SVG/1.1/DTD/svg11.dtd">
<svg version="1.1" id="Layer_1" xmlns="http://www.w3.org/2000/svg" xmlns:xlink="http://www.w3.org/1999/xlink" x="0px" y="0px"
	 width="24px" height="24px" viewBox="0 0 24 24" enable-background="new 0 0 24 24" xml:space="preserve">
<path fill="#9B2400" d="M10,1v6h4V1H10z M12,5c-0.552,0-1-0.448-1-1s0.448-1,1-1s1,0.448,1,1S12.552,5,12,5z M16,5v3H8V5H0v18h24V5
	H16z M13,20H3v-0.417c-0.004-1.112,0.044-1.747,1.324-2.043c1.403-0.324,2.787-0.613,2.122-1.841C4.473,12.062,5.883,10,8,10
	c2.077,0,3.521,1.985,1.556,5.699c-0.647,1.22,0.688,1.51,2.121,1.841c1.284,0.297,1.328,0.937,1.323,2.058V20z M21,20h-6v-2h6V20z
	 M21,16h-6v-2h6V16z M21,12h-6v-2h6V12z"/>
</svg>
