<?xml version="1.0" encoding="utf-8"?>
<!-- Generator: Adobe Illustrator 16.0.0, SVG Export Plug-In . SVG Version: 6.00 Build 0)  -->
<!DOCTYPE svg PUBLIC "-//W3C//DTD SVG 1.1//EN" "http://www.w3.org/Graphics/SVG/1.1/DTD/svg11.dtd">
<svg version="1.1" id="Layer_1" xmlns="http://www.w3.org/2000/svg" xmlns:xlink="http://www.w3.org/1999/xlink" x="0px" y="0px"
	 width="24px" height="24px" viewBox="0 0 24 24" enable-background="new 0 0 24 24" xml:space="preserve">
<path fill="#0A8255" d="M21.172,11.486L16,6.414L17.414,5L24,11.485L17.414,18L16,16.586L21.172,11.486z M2.828,11.486L8,6.414
	L6.586,5L0,11.485L6.586,18L8,16.586L2.828,11.486z M7.5,10C8.328,10,9,10.672,9,11.5S8.328,13,7.5,13S6,12.328,6,11.5
	S6.672,10,7.5,10z M16.5,10c0.828,0,1.5,0.672,1.5,1.5S17.328,13,16.5,13S15,12.328,15,11.5S15.672,10,16.5,10z M12,10
	c0.828,0,1.5,0.672,1.5,1.5S12.828,13,12,13s-1.5-0.672-1.5-1.5S11.172,10,12,10z"/>
</svg>
