<?xml version="1.0" encoding="utf-8"?>
<!-- Generator: Adobe Illustrator 16.0.0, SVG Export Plug-In . SVG Version: 6.00 Build 0)  -->
<!DOCTYPE svg PUBLIC "-//W3C//DTD SVG 1.1//EN" "http://www.w3.org/Graphics/SVG/1.1/DTD/svg11.dtd">
<svg version="1.1" id="Layer_1" xmlns="http://www.w3.org/2000/svg" xmlns:xlink="http://www.w3.org/1999/xlink" x="0px" y="0px"
	 width="24px" height="24px" viewBox="0 0 24 24" enable-background="new 0 0 24 24" xml:space="preserve">
<path fill="#FFFFFF" d="M21.598,11.456C23.064,12.648,24,14.466,24,16.5c0,3.587-2.913,6.5-6.5,6.5c-0.816,0-1.6-0.15-2.32-0.427
	L21.598,11.456z M9.695,19.865l-0.363,0.634c-1.38,2.392-4.441,3.211-6.831,1.831C0.11,20.95-0.71,17.889,0.67,15.499L7.543,3.501
	C8.474,1.888,10.169,0.99,11.908,1c0.839,0.005,1.688,0.221,2.466,0.67c1.842,1.063,2.752,3.125,2.44,5.108
	c-0.068,0.437-0.195,0.869-0.385,1.287c-0.98,0.124-1.91,0.415-2.757,0.843l0.8-1.407c0.827-1.434,0.336-3.271-1.099-4.099
	c-1.434-0.828-3.271-0.335-4.099,1.099l-3.372,5.935l3.978,2.296c-0.563,1.136-0.879,2.414-0.879,3.767
	C9.002,17.693,9.249,18.833,9.695,19.865z M13.445,21.579C11.955,20.387,11,18.555,11,16.5c0-3.587,2.913-6.5,6.5-6.5
	c0.837,0,1.637,0.158,2.372,0.447L13.445,21.579z"/>
</svg>
