<?xml version="1.0" encoding="utf-8"?>
<!-- Generator: Adobe Illustrator 16.0.0, SVG Export Plug-In . SVG Version: 6.00 Build 0)  -->
<!DOCTYPE svg PUBLIC "-//W3C//DTD SVG 1.1//EN" "http://www.w3.org/Graphics/SVG/1.1/DTD/svg11.dtd">
<svg version="1.1" id="Layer_1" xmlns="http://www.w3.org/2000/svg" xmlns:xlink="http://www.w3.org/1999/xlink" x="0px" y="0px"
	 width="24px" height="24px" viewBox="0 0 24 24" enable-background="new 0 0 24 24" xml:space="preserve">
<path fill="#FFFFFF" d="M10.118,16.064c2.293-0.529,4.428-0.994,3.394-2.945C10.366,7.177,12.678,4,16,4
	c3.389,0,5.645,3.299,2.488,9.119c-1.065,1.964,1.148,2.427,3.394,2.945c1.986,0.459,2.118,1.43,2.118,3.11L23.997,20H8.003
	C8.003,17.805,7.827,16.593,10.118,16.064z M0.002,20h6.001c-0.028-6.542,2.995-3.697,2.995-8.901C8.998,9.09,7.687,8,6,8
	c-2.492,0-4.226,2.383-1.866,6.839c0.775,1.464-0.825,1.812-2.545,2.209C0.099,17.393,0,18.12,0,19.381L0.002,20z"/>
</svg>
