<?xml version="1.0" encoding="utf-8"?>
<!-- Generator: Adobe Illustrator 16.0.0, SVG Export Plug-In . SVG Version: 6.00 Build 0)  -->
<!DOCTYPE svg PUBLIC "-//W3C//DTD SVG 1.1//EN" "http://www.w3.org/Graphics/SVG/1.1/DTD/svg11.dtd">
<svg version="1.1" id="Layer_1" xmlns="http://www.w3.org/2000/svg" xmlns:xlink="http://www.w3.org/1999/xlink" x="0px" y="0px"
	 width="24px" height="24px" viewBox="0 0 24 24" enable-background="new 0 0 24 24" xml:space="preserve">
<path fill="#344AF7" d="M13.7,4.054C13.346,4.622,12.718,5,12,5c-1.104,0-2-0.896-2-2s0.896-2,2-2c0.759,0,1.42,0.424,1.759,1.047
	c2.591,0.295,4.386,1.786,4.233,4.239c-0.186,2.859-3.294,7.619-6.001,9.69c-0.097,1.072-0.709,2.231-1.794,2.907
	c0.993,1.609,2.536,2.285,4.218,2.087c1.629-0.19,3.144-1.365,3.96-2.693C17.539,17.637,17,16.631,17,15.5
	c0-1.932,1.568-3.501,3.5-3.501S24,13.568,24,15.5c0,1.936-1.598,3.602-3.729,3.491C19.117,21.123,16.671,23,13.92,23
	c-2.713,0-4.791-1.497-5.92-4.001c-1.053-0.631-1.829-1.937-1.985-3.029C3.24,13.832,0,8.799,0,6.007C0,3.625,1.875,2.325,4.24,2.05
	C4.578,1.425,5.24,1,6,1c1.104,0,2,0.896,2,2S7.104,5,6,5C5.285,5,4.657,4.624,4.304,4.059c-2.05,0.299-2.552,1.287-2.19,2.732
	c0.633,2.567,3.604,6.868,5.908,8.121c0.757,0.416,1.193,0.421,1.96,0.002c2.726-1.482,5.981-6.697,6.018-8.858
	C16.021,4.768,14.971,4.235,13.7,4.054 M20.5,17c-0.828,0-1.5-0.674-1.5-1.5c0-0.828,0.672-1.5,1.5-1.5s1.5,0.672,1.5,1.5
	C22,16.326,21.328,17,20.5,17"/>
</svg>
