<?xml version="1.0" encoding="utf-8"?>
<!-- Generator: Adobe Illustrator 16.0.0, SVG Export Plug-In . SVG Version: 6.00 Build 0)  -->
<!DOCTYPE svg PUBLIC "-//W3C//DTD SVG 1.1//EN" "http://www.w3.org/Graphics/SVG/1.1/DTD/svg11.dtd">
<svg version="1.1" id="Layer_1" xmlns="http://www.w3.org/2000/svg" xmlns:xlink="http://www.w3.org/1999/xlink" x="0px" y="0px"
	 width="24px" height="24px" viewBox="0 0 24 24" enable-background="new 0 0 24 24" xml:space="preserve">
<path fill="#0A8255" d="M20.753,23c-0.868,0-1.685-0.338-2.297-0.951L7.854,10.875l-0.607,0.652l-1.929,1.93L0,8.137l2.51-2.511
	l0.683,0.459C3.219,6.1,3.364,6.171,3.497,6.171c0.054,0,0.12-0.008,0.215-0.104c0.195-0.195,0.312-0.471,0.475-0.854
	C4.51,4.454,4.952,3.412,6.361,2.352C7.551,1.455,9.021,1,10.728,1c2.713,0,5.107,1.163,5.208,1.212l-0.34,1.891
	c-1.658,0.166-4.559,0.762-3.319,2.007l10.786,11.358C23.663,18.07,24,18.885,24,19.752s-0.337,1.684-0.951,2.296
	C22.436,22.662,21.62,23,20.753,23z M11.412,11.632l8.47,9.017c0.444,0.443,1.28,0.459,1.753-0.013
	c0.235-0.235,0.366-0.55,0.366-0.883s-0.13-0.647-0.367-0.884l-8.457-9.002L11.412,11.632z M2.827,8.137l2.492,2.493l0.021-0.022
	C5.202,10.05,5.282,9.383,5.864,8.802c0.346-0.346,0.777-0.529,1.25-0.529c0.651,0,1.307,0.34,2.004,1.039l0.893,0.893l1.766-1.767
	l-0.915-0.915c-1.171-1.172-1.027-2.24-0.838-2.772c0.246-0.689,0.807-1.258,1.661-1.695c-0.312-0.036-0.633-0.057-0.958-0.057
	c-1.264,0-2.329,0.319-3.165,0.949c-0.98,0.738-1.25,1.374-1.537,2.047c-0.212,0.5-0.431,1.016-0.901,1.485
	c-0.45,0.452-1.013,0.69-1.627,0.69c-0.227,0-0.437-0.032-0.623-0.08L2.827,8.137z M16.38,7.518l3.336-3.296
	c0.169-0.17,0.443-0.168,0.611,0c0.169,0.17,0.169,0.442,0.001,0.611l-3.354,3.313l0.866,0.912l3.375-3.335
	c0.168-0.169,0.441-0.168,0.611,0.001c0.168,0.168,0.169,0.441,0,0.609l-3.392,3.352l1.01,1.064l3.68-3.637
	C23.709,6.53,24,5.766,24,5.002c0-0.768-0.293-1.537-0.88-2.125C22.535,2.292,21.77,2,21.006,2c-0.766,0-1.529,0.293-2.113,0.877
	l-3.569,3.528L16.38,7.518z M9.147,15.168L5.02,19.161c-0.229,0.229-0.503,0.407-0.79,0.558l-0.58,0.303l-1.025,2.146L3.458,23
	l2.101-1.07l0.301-0.58c0.151-0.285,0.347-0.545,0.574-0.773l4.091-3.958L9.147,15.168z"/>
</svg>
