<?xml version="1.0" encoding="utf-8"?>
<!-- Generator: Adobe Illustrator 16.0.0, SVG Export Plug-In . SVG Version: 6.00 Build 0)  -->
<!DOCTYPE svg PUBLIC "-//W3C//DTD SVG 1.1//EN" "http://www.w3.org/Graphics/SVG/1.1/DTD/svg11.dtd">
<svg version="1.1" id="Layer_1" xmlns="http://www.w3.org/2000/svg" xmlns:xlink="http://www.w3.org/1999/xlink" x="0px" y="0px"
	 width="24px" height="24px" viewBox="0 0 24 24" enable-background="new 0 0 24 24" xml:space="preserve">
<path fill="#FFFFFF" d="M18.904,14c-2.028,2.4-4.861,5.005-7.904,8C5.107,16.2,0,11.866,0,7.629c0-6.154,8.114-7.587,11-2.676
	c2.865-4.875,11-3.499,11,2.676c0,0.784-0.175,1.572-0.497,2.371h-6.278c-0.252,0-0.485,0.137-0.609,0.358l-0.813,1.45l-2.27-4.437
	c-0.112-0.219-0.331-0.364-0.576-0.38c-0.246-0.016-0.482,0.097-0.622,0.299L8.454,10H7.227C6.881,9.402,6.235,9,5.495,9
	c-1.103,0-2,0.896-2,2s0.897,2,2,2c0.74,0,1.386-0.402,1.732-1h1.956c0.228,0,0.441-0.111,0.573-0.297l0.989-1.406l2.256,4.559
	c0.114,0.229,0.343,0.379,0.599,0.39s0.496-0.118,0.629-0.337L15.986,12H24v2H18.904z"/>
</svg>
